<?xml version="1.0" encoding="iso-8859-1"?>
<!-- Uploaded to: SVG Repo, www.svgrepo.com, Generator: SVG Repo Mixer Tools -->
<svg height="800px" width="800px" version="1.1" id="Layer_1" xmlns="http://www.w3.org/2000/svg" xmlns:xlink="http://www.w3.org/1999/xlink" 
	 viewBox="0 0 512 512" xml:space="preserve">
<path style="fill:#B8BFCC;" d="M339.478,233.739H172.522c-9.217,0-16.696-7.473-16.696-16.696v-66.783
	c0-9.223,7.479-16.696,16.696-16.696h166.957c9.217,0,16.696,7.473,16.696,16.696v66.783
	C356.174,226.266,348.695,233.739,339.478,233.739z"/>
<path style="fill:#A1A7B3;" d="M339.478,133.565H256v100.174h83.478c9.217,0,16.696-7.473,16.696-16.696v-66.783
	C356.174,141.038,348.695,133.565,339.478,133.565z"/>
<path style="fill:#C4CAD9;" d="M256,0c-73.683,0-133.565,59.882-133.565,133.565c0,18.365,15.026,33.391,33.391,33.391h200.348
	c18.365,0,33.391-15.026,33.391-33.391C389.565,59.882,329.683,0,256,0z"/>
<path style="fill:#B8BFCC;" d="M389.565,133.565c0,18.365-15.026,33.391-33.391,33.391H256V0
	C329.683,0,389.565,59.882,389.565,133.565z"/>
<path style="fill:#E6EEFF;" d="M356.174,512H155.826c-27.619,0-50.087-22.468-50.087-50.087V250.435
	c0-27.619,22.468-50.087,50.087-50.087h200.348c27.619,0,50.087,22.468,50.087,50.087v211.478
	C406.261,489.532,383.793,512,356.174,512z"/>
<path style="fill:#DAE2F2;" d="M356.174,200.348H256V512h100.174c27.619,0,50.087-22.468,50.087-50.087V250.435
	C406.261,222.816,383.793,200.348,356.174,200.348z"/>
<g>
	<circle style="fill:#5C5F66;" cx="256" cy="66.783" r="16.696"/>
	<circle style="fill:#5C5F66;" cx="205.913" cy="100.174" r="16.696"/>
</g>
<circle style="fill:#53565C;" cx="306.087" cy="100.174" r="16.696"/>
<path style="fill:#C4CAD9;" d="M205.913,445.217c-9.217,0-16.696-7.473-16.696-16.696V283.826c0-9.223,7.479-16.696,16.696-16.696
	c9.217,0,16.696,7.473,16.696,16.696v144.696C222.609,437.744,215.13,445.217,205.913,445.217z"/>
<path style="fill:#B8BFCC;" d="M306.087,445.217c-9.217,0-16.696-7.473-16.696-16.696V283.826c0-9.223,7.479-16.696,16.696-16.696
	c9.217,0,16.696,7.473,16.696,16.696v144.696C322.783,437.744,315.304,445.217,306.087,445.217z"/>
<path style="fill:#53565C;" d="M272.696,66.783c0-9.22-7.475-16.696-16.696-16.696v33.391
	C265.22,83.478,272.696,76.003,272.696,66.783z"/>
</svg>